<svg width="13" height="13" viewBox="0 0 13 13" fill="none" xmlns="http://www.w3.org/2000/svg">
<path d="M5.39096 8.66762C3.60655 8.66762 2.15639 7.21038 2.15639 5.41726C2.15639 3.62415 3.60655 2.1669 5.39096 2.1669C7.17537 2.1669 8.62554 3.62415 8.62554 5.41726C8.62554 7.21038 7.17537 8.66762 5.39096 8.66762ZM12.4639 10.2278L10.1674 7.92004C10.5729 7.14885 10.7839 6.28948 10.7819 5.41726C10.7819 2.42693 8.36678 0 5.39096 0C2.41515 0 0 2.42693 0 5.41726C0 8.40759 2.41515 10.8345 5.39096 10.8345C6.29125 10.8345 7.13764 10.6124 7.88159 10.217L10.1781 12.5247C10.4814 12.8291 10.8924 13 11.321 13C11.7496 13 12.1607 12.8291 12.4639 12.5247C12.7668 12.22 12.9369 11.8069 12.9369 11.3763C12.9369 10.9456 12.7668 10.5325 12.4639 10.2278Z" fill="#F0F0D5"/>
</svg>
